<svg width="41" height="40" viewBox="0 0 41 40" fill="none" xmlns="http://www.w3.org/2000/svg">
<rect x="0.5" width="40" height="40" rx="20" fill="#F2E1FF"/>
<path d="M29 25L29 15C29 12 27.5 10 24 10L17 10C13.5 10 12 12 12 15L12 25C12 28 13.5 30 17 30L24 30C27.5 30 29 28 29 25ZM18 14.25C17.59 14.25 17.25 13.91 17.25 13.5C17.25 13.09 17.59 12.75 18 12.75L23 12.75C23.41 12.75 23.75 13.09 23.75 13.5C23.75 13.91 23.41 14.25 23 14.25L18 14.25ZM17.5 20C17.5 18.34 18.84 17 20.5 17C22.16 17 23.5 18.34 23.5 20C23.5 21.66 22.16 23 20.5 23C18.84 23 17.5 21.66 17.5 20ZM18 27.25C17.59 27.25 17.25 26.91 17.25 26.5C17.25 26.09 17.59 25.75 18 25.75L23 25.75C23.41 25.75 23.75 26.09 23.75 26.5C23.75 26.91 23.41 27.25 23 27.25L18 27.25Z" fill="#7F18D0"/>
</svg>
