<svg width="24" height="24" viewBox="0 0 24 24" fill="none" xmlns="http://www.w3.org/2000/svg">
<rect width="24" height="24" rx="12" fill="#E3DFF7"/>
<path fill-rule="evenodd" clip-rule="evenodd" d="M11.9585 6.29169C10.2548 6.29169 8.88634 7.66016 8.88634 9.36385C8.88634 11.068 10.2547 12.4366 11.9585 12.4366C13.6623 12.4366 15.0307 11.068 15.0307 9.36385C15.0307 7.66016 13.6622 6.29169 11.9585 6.29169ZM11.9585 7.29169C13.1099 7.29169 14.0307 8.21244 14.0307 9.36385C14.0307 10.5158 13.11 11.4366 11.9585 11.4366C10.807 11.4366 9.88634 10.5158 9.88634 9.36385C9.88634 8.21244 10.8071 7.29169 11.9585 7.29169ZM8.19333 6.9196C8.46947 6.9196 8.69333 7.14346 8.69333 7.4196C8.69333 7.69575 8.46947 7.9196 8.19333 7.9196C7.40109 7.9196 6.75855 8.56186 6.75855 9.35377C6.75855 10.1457 7.40109 10.7879 8.19333 10.7879C8.46947 10.7879 8.69333 11.0118 8.69333 11.2879C8.69333 11.5641 8.46947 11.7879 8.19333 11.7879C6.8489 11.7879 5.75855 10.6981 5.75855 9.35377C5.75855 8.00947 6.8489 6.9196 8.19333 6.9196ZM18.1647 9.35377C18.1647 8.00947 17.0744 6.9196 15.7299 6.9196C15.4538 6.9196 15.2299 7.14346 15.2299 7.4196C15.2299 7.69575 15.4538 7.9196 15.7299 7.9196C16.5222 7.9196 17.1647 8.56186 17.1647 9.35377C17.1647 10.1457 16.5222 10.7879 15.7299 10.7879C15.4538 10.7879 15.2299 11.0118 15.2299 11.2879C15.2299 11.5641 15.4538 11.7879 15.7299 11.7879C17.0744 11.7879 18.1647 10.6981 18.1647 9.35377ZM17.6639 13.0367C17.3438 12.9644 17.0017 12.915 16.6538 12.891C16.3783 12.872 16.1396 13.08 16.1206 13.3555C16.1016 13.6309 16.3095 13.8697 16.585 13.8887C16.8827 13.9092 17.1744 13.9513 17.4581 14.0152C17.8992 14.1017 18.1868 14.2452 18.2581 14.3948C18.3118 14.5077 18.3118 14.6404 18.2576 14.7547C18.1872 14.9028 17.902 15.0455 17.4671 15.1349C17.1966 15.1906 17.0225 15.4549 17.0781 15.7254C17.1337 15.9959 17.3981 16.1701 17.6685 16.1144C18.3873 15.9666 18.9139 15.7031 19.1609 15.1837C19.3441 14.7976 19.3441 14.3498 19.1609 13.9647C18.9122 13.4434 18.3766 13.1762 17.6639 13.0367ZM7.80267 13.3555C7.78368 13.08 7.54495 12.872 7.26946 12.891C6.9216 12.915 6.57949 12.9644 6.24564 13.0396L6.10801 13.0687C5.47626 13.213 4.99429 13.4783 4.76295 13.9646C4.57905 14.3494 4.57905 14.798 4.76314 15.1841C5.00909 15.7029 5.53561 15.9666 6.25471 16.1144C6.52519 16.1701 6.78955 15.9959 6.84517 15.7254C6.90079 15.4549 6.72661 15.1906 6.45612 15.1349C6.0214 15.0455 5.73648 14.9029 5.66627 14.7548C5.61156 14.64 5.61156 14.5081 5.66559 14.395C5.73692 14.2451 6.02423 14.1017 6.45148 14.018L6.67363 13.9726C6.89509 13.9316 7.115 13.9041 7.33826 13.8887C7.61375 13.8697 7.82167 13.6309 7.80267 13.3555ZM7.44473 15.4564C7.44473 13.8658 9.09002 13.3064 11.9585 13.3064L12.1617 13.3073C14.9104 13.3331 16.4723 13.8938 16.4723 15.4448C16.4723 16.9592 14.9792 17.5391 12.3598 17.5909L11.9585 17.5948C9.08345 17.5948 7.44473 17.0452 7.44473 15.4564ZM15.4723 15.4448C15.4723 14.7044 14.2853 14.3064 11.9585 14.3064C9.63404 14.3064 8.44473 14.7107 8.44473 15.4564C8.44473 16.1968 9.63139 16.5948 11.9585 16.5948C14.2823 16.5948 15.4723 16.1901 15.4723 15.4448Z" fill="#7F18D0"/>
</svg>
