<svg width="40" height="40" viewBox="0 0 40 40" fill="none" xmlns="http://www.w3.org/2000/svg">
<rect width="40" height="40" rx="20" fill="#F2E1FF"/>
<path d="M25 11.5H15C12 11.5 10 13 10 16.5V23.5C10 27 12 28.5 15 28.5H25C28 28.5 30 27 30 23.5V16.5C30 13 28 11.5 25 11.5ZM14.25 22.5C14.25 22.91 13.91 23.25 13.5 23.25C13.09 23.25 12.75 22.91 12.75 22.5V17.5C12.75 17.09 13.09 16.75 13.5 16.75C13.91 16.75 14.25 17.09 14.25 17.5V22.5ZM20 23C18.34 23 17 21.66 17 20C17 18.34 18.34 17 20 17C21.66 17 23 18.34 23 20C23 21.66 21.66 23 20 23ZM27.25 22.5C27.25 22.91 26.91 23.25 26.5 23.25C26.09 23.25 25.75 22.91 25.75 22.5V17.5C25.75 17.09 26.09 16.75 26.5 16.75C26.91 16.75 27.25 17.09 27.25 17.5V22.5Z" fill="#7F18D0"/>
</svg>
