<svg width="24" height="24" viewBox="0 0 24 24" fill="none" xmlns="http://www.w3.org/2000/svg">
<rect width="24" height="24" rx="12" fill="#E3DFF7"/>
<path d="M6.33334 15.3333L6.33334 8.66665C6.33334 6.66665 7.33334 5.33331 9.66667 5.33331L14.3333 5.33331C16.6667 5.33331 17.6667 6.66665 17.6667 8.66665L17.6667 15.3333C17.6667 17.3333 16.6667 18.6666 14.3333 18.6666L9.66667 18.6666C7.33334 18.6666 6.33334 17.3333 6.33334 15.3333Z" stroke="#7F18D0" stroke-width="1.5" stroke-miterlimit="10" stroke-linecap="round" stroke-linejoin="round"/>
<path d="M10 12C10 13.1046 10.8954 14 12 14C13.1046 14 14 13.1046 14 12C14 10.8954 13.1046 10 12 10C10.8954 10 10 10.8954 10 12Z" stroke="#7F18D0" stroke-width="1.5" stroke-miterlimit="10" stroke-linecap="round" stroke-linejoin="round"/>
<path d="M13.6667 7.66669L10.3333 7.66669" stroke="#7F18D0" stroke-width="1.5" stroke-miterlimit="10" stroke-linecap="round" stroke-linejoin="round"/>
<path d="M13.6667 16.3333L10.3333 16.3333" stroke="#7F18D0" stroke-width="1.5" stroke-miterlimit="10" stroke-linecap="round" stroke-linejoin="round"/>
</svg>
