<svg width="24" height="24" viewBox="0 0 24 24" fill="none" xmlns="http://www.w3.org/2000/svg">
<rect width="24" height="24" rx="12" fill="#E3DFF7"/>
<path d="M13.5078 14.6653H10.1745" stroke="#7F18D0" stroke-width="1.5" stroke-miterlimit="10" stroke-linecap="round" stroke-linejoin="round"/>
<path d="M12.44 5.67874L12.42 5.7254L10.4867 10.2121H8.58667C8.13334 10.2121 7.7 10.3054 7.30667 10.4721L8.47334 7.6854L8.5 7.61874L8.54667 7.51207C8.56 7.47207 8.57334 7.43207 8.59334 7.39874C9.46667 5.37874 10.4533 4.91874 12.44 5.67874Z" stroke="#7F18D0" stroke-width="1.5" stroke-linecap="round" stroke-linejoin="round"/>
<path d="M16.0333 10.3454C15.7333 10.2521 15.4133 10.2121 15.0933 10.2121H10.4867L12.42 5.72544L12.44 5.67877C12.54 5.71211 12.6333 5.75877 12.7333 5.79877L14.2067 6.41877C15.0267 6.75877 15.6 7.11211 15.9467 7.53877C16.0133 7.61877 16.0667 7.69211 16.1133 7.77877C16.1733 7.87211 16.22 7.96544 16.2467 8.06544C16.2733 8.12544 16.2933 8.18544 16.3067 8.23877C16.4867 8.79877 16.38 9.48544 16.0333 10.3454Z" stroke="#7F18D0" stroke-width="1.5" stroke-linecap="round" stroke-linejoin="round"/>
<path d="M18.3478 13.4656V14.7656C18.3478 14.8989 18.3411 15.0322 18.3345 15.1656C18.2078 17.4922 16.9078 18.6656 14.4411 18.6656H9.24114C9.08114 18.6656 8.92114 18.6522 8.76781 18.6322C6.64781 18.4922 5.51447 17.3589 5.37447 15.2389C5.35447 15.0856 5.34114 14.9256 5.34114 14.7656V13.4656C5.34114 12.1256 6.15447 10.9722 7.31447 10.4722C7.71447 10.3056 8.14114 10.2122 8.59447 10.2122H15.1011C15.4278 10.2122 15.7478 10.2589 16.0411 10.3456C17.3678 10.7522 18.3478 11.9922 18.3478 13.4656Z" stroke="#7F18D0" stroke-width="1.5" stroke-linecap="round" stroke-linejoin="round"/>
<path d="M8.47333 7.68542L7.30666 10.4721C6.14666 10.9721 5.33333 12.1254 5.33333 13.4654V11.5121C5.33333 9.61876 6.67999 8.03876 8.47333 7.68542Z" stroke="#7F18D0" stroke-width="1.5" stroke-linecap="round" stroke-linejoin="round"/>
<path d="M18.3457 11.5118V13.4651C18.3457 11.9985 17.3724 10.7518 16.0391 10.3518C16.3857 9.48512 16.4857 8.80512 16.3191 8.23846C16.3057 8.17846 16.2857 8.11846 16.2591 8.06512C17.4991 8.70512 18.3457 10.0185 18.3457 11.5118Z" stroke="#7F18D0" stroke-width="1.5" stroke-linecap="round" stroke-linejoin="round"/>
</svg>
